<svg xmlns="http://www.w3.org/2000/svg" width="640" height="640" viewBox="0 0 640 640">
  <defs>
    <linearGradient id="g" x1="0" x2="1" y1="0" y2="1">
      <stop offset="0" stop-color="#ffffff" stop-opacity="0.9"/>
      <stop offset="1" stop-color="#dbeafe" stop-opacity="0.9"/>
    </linearGradient>
    <linearGradient id="shine" x1="0" x2="1" y1="0" y2="0">
      <stop offset="0" stop-color="#ffffff" stop-opacity="0"/>
      <stop offset="0.45" stop-color="#ffffff" stop-opacity="0.5"/>
      <stop offset="1" stop-color="#ffffff" stop-opacity="0"/>
    </linearGradient>
    <filter id="shadow" x="-20%" y="-20%" width="140%" height="140%">
      <feDropShadow dx="0" dy="18" stdDeviation="18" flood-color="#000" flood-opacity="0.15"/>
    </filter>
  </defs>

  <rect width="640" height="640" fill="#f5f7f9"/>

  <g filter="url(#shadow)">
    <path d="M170 130c0-18 14-32 32-32h236c18 0 32 14 32 32v46c0 18-14 32-32 32H202c-18 0-32-14-32-32v-46Z" fill="#ffffff"/>
    <path d="M150 170c0-26 21-46 46-46h248c25 0 46 20 46 46v320c0 32-26 58-58 58H208c-32 0-58-26-58-58V170Z" fill="url(#g)" stroke="#cbd5e1" stroke-width="3"/>

    <path d="M205 188c0-10 8-18 18-18h194c10 0 18 8 18 18v20c0 10-8 18-18 18H223c-10 0-18-8-18-18v-20Z" fill="#ffffff" opacity="0.85"/>

    <path d="M215 250c60-24 160-22 230 0" fill="none" stroke="#94a3b8" stroke-width="3" stroke-linecap="round" opacity="0.55"/>
    <path d="M215 285c70-22 170-20 230 0" fill="none" stroke="#94a3b8" stroke-width="3" stroke-linecap="round" opacity="0.45"/>
    <path d="M215 320c75-20 175-18 230 0" fill="none" stroke="#94a3b8" stroke-width="3" stroke-linecap="round" opacity="0.35"/>

    <rect x="170" y="170" width="40" height="340" rx="20" fill="url(#shine)" opacity="0.65"/>

    <g>
      <rect x="238" y="375" width="164" height="74" rx="22" fill="#2a7de1" opacity="0.1" stroke="#2a7de1" stroke-opacity="0.35"/>
      <text x="320" y="418" text-anchor="middle" font-family="Poppins, Arial, sans-serif" font-size="20" fill="#2a7de1" font-weight="700">POLY</text>
      <text x="320" y="442" text-anchor="middle" font-family="Poppins, Arial, sans-serif" font-size="16" fill="#2a7de1" font-weight="600" opacity="0.9">BAG</text>
    </g>
  </g>
</svg>
