<svg width="520" height="420" viewBox="0 0 520 420" fill="none" xmlns="http://www.w3.org/2000/svg">
  <defs>
    <linearGradient id="g3" x1="160" y1="56" x2="356" y2="364" gradientUnits="userSpaceOnUse">
      <stop stop-color="#2A2A2A"/>
      <stop offset="0.6" stop-color="#111111"/>
      <stop offset="1" stop-color="#000000"/>
    </linearGradient>
    <filter id="s3" x="88" y="32" width="344" height="384" filterUnits="userSpaceOnUse" color-interpolation-filters="sRGB">
      <feDropShadow dx="0" dy="18" stdDeviation="14" flood-color="#000" flood-opacity="0.16"/>
    </filter>
  </defs>

  <g filter="url(#s3)">
    <path d="M170 56h180c18 0 32 14 32 32v244c0 18-14 32-32 32H170c-18 0-32-14-32-32V88c0-18 14-32 32-32Z" fill="url(#g3)"/>
    <path d="M195 138h130c10 0 18 8 18 18v88c0 10-8 18-18 18H195c-10 0-18-8-18-18v-88c0-10 8-18 18-18Z" fill="#FFFFFF" fill-opacity="0.06" stroke="#FFFFFF" stroke-opacity="0.14"/>
    <path d="M214 188c8 14 20 22 46 22s38-8 46-22" stroke="#FFFFFF" stroke-opacity="0.85" stroke-width="4" stroke-linecap="round"/>
    <circle cx="238" cy="170" r="6" fill="#FFFFFF" fill-opacity="0.85"/>
    <circle cx="330" cy="170" r="6" fill="#FFFFFF" fill-opacity="0.85"/>
    <text x="188" y="294" fill="#FFFFFF" fill-opacity="0.92" font-size="22" font-family="Poppins, Arial" font-weight="700">Pretty Thing Inside</text>
    <path d="M170 56h180c18 0 32 14 32 32v244c0 18-14 32-32 32H170c-18 0-32-14-32-32V88c0-18 14-32 32-32Z" stroke="#FFFFFF" stroke-opacity="0.08" stroke-width="4"/>
  </g>
</svg>

