<svg width="640" height="720" viewBox="0 0 640 720" fill="none" xmlns="http://www.w3.org/2000/svg">
  <defs>
    <linearGradient id="bagBody" x1="134" y1="88" x2="506" y2="642" gradientUnits="userSpaceOnUse">
      <stop stop-color="#FF7DB5"/>
      <stop offset="0.52" stop-color="#FF4FA1"/>
      <stop offset="1" stop-color="#F02E8A"/>
    </linearGradient>
    <linearGradient id="bagGloss" x1="198" y1="170" x2="425" y2="512" gradientUnits="userSpaceOnUse">
      <stop stop-color="white" stop-opacity="0.65"/>
      <stop offset="0.35" stop-color="white" stop-opacity="0.25"/>
      <stop offset="1" stop-color="white" stop-opacity="0"/>
    </linearGradient>
    <filter id="bagShadow" x="64" y="80" width="512" height="584" filterUnits="userSpaceOnUse" color-interpolation-filters="sRGB">
      <feDropShadow dx="0" dy="26" stdDeviation="18" flood-color="#000000" flood-opacity="0.16"/>
    </filter>
  </defs>

  <g filter="url(#bagShadow)">
    <path d="M180 112h280c22 0 40 18 40 40v420c0 22-18 40-40 40H180c-22 0-40-18-40-40V152c0-22 18-40 40-40Z" fill="url(#bagBody)"/>
    <path d="M140 182c56-22 112-26 168-12 56 14 112 12 168-6v52c-56 18-112 20-168 6-56-14-112-10-168 12v-52Z" fill="#FFB6D5" fill-opacity="0.55"/>
    <path d="M180 112h280c22 0 40 18 40 40v30c-76 28-152 32-228 12-52-14-104-10-156 12v-54c0-22 18-40 40-40Z" fill="#FFB6D5" fill-opacity="0.28"/>
    <path d="M210 170c18-6 36-8 56-6 20 2 40 8 60 16 26 10 52 14 78 12v356c-18 2-36 0-54-6-36-12-70-28-106-36-34-8-66-6-96 8V170Z" fill="url(#bagGloss)"/>
    <path d="M180 112h280c22 0 40 18 40 40v420c0 22-18 40-40 40H180c-22 0-40-18-40-40V152c0-22 18-40 40-40Z" stroke="#D61E73" stroke-opacity="0.35" stroke-width="4"/>
    <path d="M178 304h284" stroke="white" stroke-opacity="0.55" stroke-width="3" stroke-linecap="round"/>
    <path d="M178 338h220" stroke="white" stroke-opacity="0.4" stroke-width="3" stroke-linecap="round"/>
    <path d="M178 372h260" stroke="white" stroke-opacity="0.28" stroke-width="3" stroke-linecap="round"/>
  </g>

  <circle cx="488" cy="174" r="10" fill="white" fill-opacity="0.42"/>
</svg>

