<svg width="720" height="520" viewBox="0 0 720 520" fill="none" xmlns="http://www.w3.org/2000/svg">
  <defs>
    <linearGradient id="pu" x1="246" y1="90" x2="474" y2="448" gradientUnits="userSpaceOnUse">
      <stop stop-color="#9B6BFF"/>
      <stop offset="0.6" stop-color="#7C4DFF"/>
      <stop offset="1" stop-color="#5E37E6"/>
    </linearGradient>
    <filter id="sh" x="120" y="54" width="480" height="420" filterUnits="userSpaceOnUse" color-interpolation-filters="sRGB">
      <feDropShadow dx="0" dy="18" stdDeviation="14" flood-color="#000000" flood-opacity="0.16"/>
    </filter>
  </defs>

  <g filter="url(#sh)">
    <path d="M258 110h204c20 0 36 16 36 36v230c0 20-16 36-36 36H258c-20 0-36-16-36-36V146c0-20 16-36 36-36Z" fill="url(#pu)"/>
    <path d="M222 170h276" stroke="#FFFFFF" stroke-opacity="0.22" stroke-width="10" stroke-linecap="round"/>
    <path d="M258 110h204c20 0 36 16 36 36v230c0 20-16 36-36 36H258c-20 0-36-16-36-36V146c0-20 16-36 36-36Z" stroke="#2E1B83" stroke-opacity="0.22" stroke-width="4"/>
  </g>
</svg>

