<svg xmlns="http://www.w3.org/2000/svg" width="520" height="520" viewBox="0 0 520 520">
  <defs>
    <linearGradient id="bagW" x1="0" x2="1" y1="0" y2="1">
      <stop offset="0" stop-color="#ffffff"/>
      <stop offset="1" stop-color="#e9eef4"/>
    </linearGradient>
    <linearGradient id="shineW" x1="0" x2="0" y1="0" y2="1">
      <stop offset="0" stop-color="#ffffff" stop-opacity="0.7"/>
      <stop offset="1" stop-color="#ffffff" stop-opacity="0"/>
    </linearGradient>
    <filter id="sW" x="-20%" y="-20%" width="140%" height="140%">
      <feDropShadow dx="0" dy="14" stdDeviation="14" flood-color="#000000" flood-opacity="0.12"/>
    </filter>
  </defs>

  <rect width="520" height="520" fill="none"/>
  <g filter="url(#sW)">
    <path d="M150 90c0-16 13-30 30-30h160c17 0 30 14 30 30v300c0 20-16 36-36 36H186c-20 0-36-16-36-36V90z" fill="url(#bagW)"/>
    <path d="M150 120h220" stroke="#cfd6de" stroke-width="10" stroke-linecap="round" opacity="0.75"/>
    <path d="M178 82h164c20 0 36 16 36 36v18H142v-18c0-20 16-36 36-36z" fill="#eef2f7" opacity="0.9"/>
    <path d="M176 120c0-30 18-54 44-54h22" fill="none" stroke="url(#shineW)" stroke-width="20" stroke-linecap="round"/>
  </g>

  <g>
    <circle cx="260" cy="232" r="88" fill="none" stroke="#222" stroke-width="6" opacity="0.9"/>
    <text x="260" y="222" text-anchor="middle" font-family="Poppins, Inter, system-ui" font-size="36" font-weight="900" fill="#222">YOUR</text>
    <text x="260" y="260" text-anchor="middle" font-family="Poppins, Inter, system-ui" font-size="36" font-weight="900" fill="#222">LOGO</text>
  </g>

  <g opacity="0.65">
    <text x="260" y="350" text-anchor="middle" font-family="Inter, system-ui" font-size="16" font-weight="700" fill="#222">@YOUR ACCOUNT</text>
    <text x="260" y="378" text-anchor="middle" font-family="Inter, system-ui" font-size="14" font-weight="700" fill="#222">WWW.YOURWEBSITE.COM</text>
  </g>
</svg>

