<svg width="720" height="640" viewBox="0 0 720 640" fill="none" xmlns="http://www.w3.org/2000/svg">
  <defs>
    <linearGradient id="fpp" x1="230" y1="96" x2="490" y2="564" gradientUnits="userSpaceOnUse">
      <stop stop-color="#FFFFFF"/>
      <stop offset="0.6" stop-color="#F1F3F7"/>
      <stop offset="1" stop-color="#E3E7EE"/>
    </linearGradient>
    <filter id="sh2" x="120" y="72" width="480" height="520" filterUnits="userSpaceOnUse" color-interpolation-filters="sRGB">
      <feDropShadow dx="0" dy="18" stdDeviation="14" flood-color="#000000" flood-opacity="0.14"/>
    </filter>
  </defs>

  <g filter="url(#sh2)">
    <path d="M248 110h224c20 0 36 16 36 36v346c0 20-16 36-36 36H248c-20 0-36-16-36-36V146c0-20 16-36 36-36Z" fill="url(#fpp)" fill-opacity="0.92"/>
    <path d="M212 176h296" stroke="#2A7DE1" stroke-opacity="0.18" stroke-width="4" stroke-linecap="round"/>
    <path d="M232 152h256" stroke="#2A7DE1" stroke-opacity="0.35" stroke-width="10" stroke-linecap="round"/>
    <path d="M270 250h180c12 0 22 10 22 22v118c0 12-10 22-22 22H270c-12 0-22-10-22-22V272c0-12 10-22 22-22Z" fill="#2A7DE1" fill-opacity="0.08" stroke="#2A7DE1" stroke-opacity="0.18" stroke-width="3"/>
    <text x="292" y="310" fill="#2A7DE1" fill-opacity="0.7" font-size="18" font-family="Poppins, Arial" font-weight="900" letter-spacing="1.2">CUSTOM</text>
    <text x="302" y="346" fill="#333333" fill-opacity="0.8" font-size="22" font-family="Poppins, Arial" font-weight="900">PRINT</text>
    <text x="288" y="382" fill="#333333" fill-opacity="0.6" font-size="14" font-family="Poppins, Arial" font-weight="800" letter-spacing="0.6">SLIDER BAGS</text>
    <path d="M248 110h224c20 0 36 16 36 36v346c0 20-16 36-36 36H248c-20 0-36-16-36-36V146c0-20 16-36 36-36Z" stroke="#222222" stroke-opacity="0.12" stroke-width="4"/>
  </g>
</svg>

